<?xml version="1.0" encoding="iso-8859-1"?>
<!-- Uploaded to: SVG Repo, www.svgrepo.com, Generator: SVG Repo Mixer Tools -->
<svg version="1.1" id="Layer_1" xmlns="http://www.w3.org/2000/svg" xmlns:xlink="http://www.w3.org/1999/xlink" 
	 viewBox="0 0 512 512" xml:space="preserve">
<rect x="159.26" y="455.707" style="fill:#8CC63F;" width="193.471" height="24.248"/>
<rect x="150.918" y="479.954" style="fill:#C7B299;" width="210.155" height="24.248"/>
<rect x="150.918" y="479.954" style="fill:#998675;" width="64.657" height="24.248"/>
<path d="M368.877,512H143.122v-39.851h225.755L368.877,512L368.877,512z M158.725,496.398h194.55v-8.646h-194.55V496.398z"/>
<path d="M420.567,325.94l-11.033-11.032c-36.691,36.692-85.477,56.9-137.367,56.9c-51.892,0-100.677-20.207-137.368-56.9
	c-36.693-36.692-56.9-85.478-56.9-137.368s20.207-100.676,56.9-137.369l-11.033-11.032c-39.639,39.639-61.47,92.342-61.47,148.401
	s21.83,108.762,61.47,148.401c33.809,33.809,77.122,54.649,123.914,60.053v45.491h15.603v-44.269
	c2.952,0.122,5.912,0.197,8.885,0.197C328.224,387.41,380.927,365.58,420.567,325.94z"/>
<polygon points="263.281,448.125 263.281,439.804 247.679,439.804 247.679,448.125 159.265,448.125 159.265,463.728 
	352.735,463.728 352.735,448.125 "/>
<circle style="fill:#0071BC;" cx="272.16" cy="177.536" r="169.734"/>
<path style="fill:#29ABE2;" d="M152.143,57.516c-21.887,21.887-36.39,48.297-43.823,76.199
	c56.602-15.078,119.446-0.576,163.846,43.823s58.901,107.244,43.823,163.846c27.902-7.433,54.312-21.936,76.199-43.823
	c66.287-66.287,66.287-173.759,0-240.046C325.901-8.771,218.429-8.771,152.143,57.516z"/>
<path style="fill:#54BCE8;" d="M152.143,57.516c-10.896,10.896-19.819,22.981-27.133,35.736
	c64.845-37.182,148.919-28.258,204.309,27.133s64.315,139.464,27.133,204.309c12.755-7.313,24.84-16.237,35.736-27.133
	c66.287-66.287,66.287-173.759,0-240.046C325.901-8.771,218.429-8.771,152.143,57.516z"/>
<path style="fill:#B2E1F5;" d="M152.143,57.516c-2.895,2.895-5.498,5.961-8.14,9.006c66.682-57.857,167.648-55.253,231.04,8.14
	s65.996,164.359,8.14,231.04c3.045-2.641,6.112-5.246,9.006-8.14c66.287-66.287,66.287-173.759,0-240.046
	C325.901-8.771,218.429-8.771,152.143,57.516z"/>
<g>
	
		<rect x="178.652" y="72.289" transform="matrix(-0.7071 -0.7071 0.7071 -0.7071 261.4623 269.0456)" style="fill:#FFFFFF;" width="15.601" height="16.166"/>
	
		<rect x="210.056" y="40.749" transform="matrix(-0.7071 -0.7071 0.7071 -0.7071 288.7969 354.6895)" style="fill:#FFFFFF;" width="15.602" height="153.569"/>
</g>
<rect x="284.362" y="31.109" transform="matrix(-0.7071 -0.7071 0.7071 -0.7071 468.1837 280.3943)" width="15.602" height="24.248"/>
<g>
	
		<rect x="272.923" y="114.473" transform="matrix(-0.7071 -0.7071 0.7071 -0.7071 383.9931 428.4148)" style="fill:#FFFFFF;" width="15.602" height="40.413"/>
	
		<rect x="310.07" y="173.378" transform="matrix(-0.7071 -0.7071 0.7071 -0.7071 368.6066 644.9245)" style="fill:#FFFFFF;" width="15.602" height="145.487"/>
</g>
<path d="M397.705,52c-33.533-33.533-78.116-52-125.54-52c-47.422,0-92.006,18.467-125.539,52c-33.532,33.533-52,78.116-52,125.539
	s18.468,92.007,52,125.539c33.533,33.533,78.118,52,125.539,52c47.423,0,92.007-18.467,125.54-52
	c33.532-33.533,52-78.116,52-125.539S431.237,85.533,397.705,52z M386.672,292.046c-17.919,17.919-39.3,31.112-62.632,38.974
	l56.518-56.518l-11.033-11.032l-74.3,74.3l0.07,0.07c-7.596,1.08-15.321,1.637-23.13,1.637c-11.288,0-22.398-1.158-33.2-3.397
	l21.57-21.569l-11.031-11.033l-27.965,27.964c-23.818-7.809-45.641-21.157-63.88-39.395c-3.91-3.91-7.593-7.987-11.048-12.213
	L260.536,165.91l-11.033-11.032L137.228,267.153c-17.564-26.33-26.999-57.246-26.999-89.613c0-3.436,0.119-6.853,0.33-10.252
	l64.247-64.247l-11.033-11.032l-49.552,49.552c6.663-29.514,21.522-56.61,43.44-78.527c30.584-30.587,71.249-47.432,114.505-47.432
	s83.922,16.844,114.507,47.431c3.911,3.91,7.593,7.987,11.048,12.213L238.072,234.892l11.033,11.032L407.104,87.926
	c17.564,26.33,26.999,57.246,26.999,89.613C434.102,220.794,417.258,261.46,386.672,292.046z"/>
<rect x="387.227" y="236.856" transform="matrix(-0.7071 -0.7071 0.7071 -0.7071 498.3006 704.3621)" style="fill:#FFFFFF;" width="15.602" height="24.248"/>
<g>
	
		<rect x="106.284" y="23.93" transform="matrix(-0.7038 -0.7104 0.7104 -0.7038 192.9751 143.9226)" style="fill:#8CC63F;" width="40.415" height="15.603"/>
	
		<rect x="397.764" y="315.417" transform="matrix(-0.7038 -0.7104 0.7104 -0.7038 482.5247 847.6245)" style="fill:#8CC63F;" width="40.415" height="15.603"/>
</g>
</svg>